<svg width="912" height="277" viewBox="0 0 912 277" fill="none" xmlns="http://www.w3.org/2000/svg">
<path d="M310.976 111.597C310.976 172.923 265.219 222.638 208.775 222.638C152.331 222.638 106.575 172.923 106.575 111.597C106.575 50.2706 152.331 0.555649 208.775 0.555649C265.219 0.555649 310.976 50.2706 310.976 111.597Z" fill="#27272a"/>
<path d="M164.144 187.299C164.144 232.626 127.399 269.371 82.072 269.371C36.7449 269.371 0 232.626 0 187.299C0 141.972 36.7449 105.227 82.072 105.227C127.399 105.227 164.144 141.972 164.144 187.299Z" fill="#27272a"/>
<path d="M431.708 189.766C431.708 227.521 401.101 258.128 363.346 258.128C325.59 258.128 294.984 227.521 294.984 189.766C294.984 152.011 325.59 121.404 363.346 121.404C401.101 121.404 431.708 152.011 431.708 189.766Z" fill="#27272a"/>
<path d="M368.429 173.589C368.429 211.345 337.822 241.952 300.067 241.952C262.312 241.952 231.705 211.345 231.705 173.589C231.705 135.834 262.312 105.227 300.067 105.227C337.822 105.227 368.429 135.834 368.429 173.589Z" fill="#27272a"/>
<path d="M370.461 106.663C370.461 127.511 353.561 144.411 332.713 144.411C311.866 144.411 294.966 127.511 294.966 106.663C294.966 85.816 311.866 68.9157 332.713 68.9157C353.561 68.9157 370.461 85.816 370.461 106.663Z" fill="#27272a"/>
<path d="M695.033 69.2129C695.033 86.1208 681.326 99.8273 664.418 99.8273C647.511 99.8273 633.804 86.1208 633.804 69.2129C633.804 52.3051 647.511 38.5986 664.418 38.5986C681.326 38.5986 695.033 52.3051 695.033 69.2129Z" fill="#27272a"/>
<path d="M511.941 201.479C511.941 222.491 494.908 239.524 473.896 239.524C452.885 239.524 435.851 222.491 435.851 201.479C435.851 180.467 452.885 163.434 473.896 163.434C494.908 163.434 511.941 180.467 511.941 201.479Z" fill="#27272a"/>
<path d="M650.718 181.699C650.718 215.097 623.644 242.171 590.246 242.171C556.849 242.171 529.775 215.097 529.775 181.699C529.775 148.302 556.849 121.228 590.246 121.228C623.644 121.228 650.718 148.302 650.718 181.699Z" fill="#27272a"/>
<path d="M774.768 131.372C774.768 174.731 739.619 209.879 696.261 209.879C652.903 209.879 617.754 174.731 617.754 131.372C617.754 88.0142 652.903 52.8654 696.261 52.8654C739.619 52.8654 774.768 88.0142 774.768 131.372Z" fill="#27272a"/>
<path d="M878.437 196.582C878.437 236.23 846.296 268.37 806.649 268.37C767.002 268.37 734.861 236.23 734.861 196.582C734.861 156.935 767.002 124.794 806.649 124.794C846.296 124.794 878.437 156.935 878.437 196.582Z" fill="#27272a"/>
<path d="M911.594 231.547C911.594 256.115 883.583 276.032 849.029 276.032C814.476 276.032 786.464 256.115 786.464 231.547C786.464 206.978 814.476 187.061 849.029 187.061C883.583 187.061 911.594 206.978 911.594 231.547Z" fill="#27272a"/>
<path d="M64.3175 187.212H828.785V269.247H64.3175V187.212Z" fill="#27272a"/>
</svg>
